<svg height="512pt" viewBox="-44 0 512 512.00135" width="512pt" xmlns="http://www.w3.org/2000/svg"><path d="m263.101562 230.789062-208.542968 58.476563-51.070313-182.125c-7.445312-26.546875 8.042969-54.101563 34.585938-61.542969l112.414062-31.523437c26.542969-7.445313 54.097657 8.042969 61.542969 34.585937zm0 0" fill="#2eddda"/><path d="m212.03125 48.660156c-5.375-19.171875-21.242188-32.574218-39.644531-35.734375-5.363281 17.671875-15.984375 50.675781-29.09375 81.113281-10.132813 23.523438-32.054688 39.699219-57.4375 43.089844-19.617188 2.617188-44.410157 9.421875-66.683594 25.941406l35.386719 126.195313 208.546875-58.476563zm0 0" fill="#00d2ce"/><path d="m357.417969 334.644531-225.054688-83.34375 83.84375-226.414062c7.308594-19.738281 29.234375-29.8125 48.972657-22.503907l82.496093 30.550782c16.933594 6.269531 30.679688 19.007812 38.21875 35.417968l27.066407 58.894532c7.535156 16.40625 8.25 35.132812 1.980468 52.066406zm0 0" fill="#76e7e7"/><path d="m412.960938 127.246094-7.472657-16.261719-19.597656-42.644531c-3.433594-7.472656-8.164063-14.195313-13.894531-19.878906l-17.59375 47.515624c-5.546875 14.980469 2.097656 31.625 17.078125 37.171876l47.519531 17.59375c-.585938-8.054688-2.605469-16.019532-6.039062-23.496094zm0 0" fill="#b0f0ef"/><path d="m321.195312 122.78125 1.972657 18.953125 16.734375 9.117187c10.105468 5.507813 9.511718 20.214844-1.007813 24.886719l-17.417969 7.734375-3.5 18.730469c-2.113281 11.316406-16.285156 15.292969-23.980468 6.730469l-12.738282-14.171875-18.894531 2.457031c-11.414062 1.484375-19.578125-10.761719-13.8125-20.726562l9.542969-16.492188-8.179688-17.214844c-4.9375-10.394531 4.1875-21.941406 15.445313-19.539062l18.636719 3.976562 13.839844-13.09375c8.363281-7.90625 22.167968-2.796875 23.359374 8.652344zm0 0" fill="#f9ee80"/><path d="m0 224.480469v225.695312c0 34.144531 27.683594 61.824219 61.828125 61.824219h301.179687c34.144532 0 61.824219-27.679688 61.824219-61.824219v-143.214843c0-34.148438-27.679687-61.828126-61.824219-61.828126h-180.570312c-12.316406 0-23.832031-6.089843-30.761719-16.269531l-16.554687-24.308593c-9.664063-14.191407-25.726563-22.6875-42.898438-22.6875h-49.609375c-23.535156 0-42.613281 19.078124-42.613281 42.613281zm0 0" fill="#f9ee80"/><path d="m63.355469 450.171875v-225.691406c0-38.476563 28.867187-42.613281 28.867187-42.613281h-49.609375c-23.535156 0-42.613281 19.078124-42.613281 42.613281v225.691406c0 34.148437 27.683594 61.828125 61.828125 61.828125h63.351563c-34.144532 0-61.824219-27.679688-61.824219-61.828125zm0 0" fill="#f4e74d"/><path d="m212.417969 425.070312c-15.988281 0-28.949219-12.960937-28.949219-28.949218v-21.046875c0-4.367188 3.539062-7.902344 7.902344-7.902344h42.09375c4.363281 0 7.902344 3.535156 7.902344 7.902344v21.046875c-.003907 15.988281-12.960938 28.949218-28.949219 28.949218zm0 0" fill="#454545"/><path d="m146.460938 396.121094c0-13.582032-13.824219-24.589844-30.878907-24.589844-17.050781 0-30.875 11.007812-30.875 24.589844 0 13.578125 13.824219 24.589844 30.875 24.589844 17.054688 0 30.878907-11.011719 30.878907-24.589844zm0 0" fill="#fdb2db"/><path d="m340.128906 396.121094c0-13.582032-13.824218-24.589844-30.878906-24.589844s-30.878906 11.007812-30.878906 24.589844c0 13.578125 13.824218 24.589844 30.878906 24.589844s30.878906-11.011719 30.878906-24.589844zm0 0" fill="#fdb2db"/><g fill="#454545"><path d="m295.507812 382.621094c-4.269531 0-7.726562-3.457032-7.726562-7.726563v-12.824219c0-4.269531 3.457031-7.726562 7.726562-7.726562 4.265626 0 7.726563 3.457031 7.726563 7.726562v12.824219c0 4.269531-3.460937 7.726563-7.726563 7.726563zm0 0"/><path d="m129.324219 382.621094c-4.265625 0-7.726563-3.457032-7.726563-7.726563v-12.824219c0-4.269531 3.460938-7.726562 7.726563-7.726562 4.269531 0 7.726562 3.457031 7.726562 7.726562v12.824219c0 4.269531-3.457031 7.726563-7.726562 7.726563zm0 0"/></g></svg>