<svg id="Capa_1" enable-background="new 0 0 512 512" height="512" viewBox="0 0 512 512" width="512" xmlns="http://www.w3.org/2000/svg"><g><g><path d="m466.804 162.83-431.236 36.373v-138.635c0-10.572 8.57-19.141 19.141-19.141h392.953c10.572 0 19.141 8.57 19.141 19.141v102.262z" fill="#f9f3f1"/></g><g><path d="m241.3 124.786-18.522 26.796c-4.868 7.043-12.885 11.247-21.447 11.247h-183.172c-10.029.001-18.159 8.131-18.159 18.159v271.426c0 10.029 8.13 18.159 18.159 18.159h475.683c10.029 0 18.159-8.13 18.159-18.159v-319.191c0-8.194-6.643-14.837-14.837-14.837h-243.659c-4.873 0-9.434 2.392-12.205 6.4z" fill="#fdd602"/></g><g><path d="m497.163 118.386h-16.068v212.976c0 59.816-48.49 108.306-108.306 108.306h-372.789v12.747c0 10.029 8.13 18.158 18.158 18.158h475.683c10.029 0 18.159-8.13 18.159-18.159v-319.191c0-8.194-6.643-14.837-14.837-14.837z" fill="#fdc102"/></g><g fill="#fd9002"><path d="m358.266 341.967c4.267 0 7.726-3.459 7.726-7.726s-3.459-7.726-7.726-7.726h-22.066c-4.267 0-7.726 3.459-7.726 7.726v52.37c0 4.267 3.459 7.726 7.726 7.726h22.066c4.267 0 7.726-3.459 7.726-7.726s-3.459-7.726-7.726-7.726h-14.34v-10.732h12.713c4.267 0 7.726-3.459 7.726-7.726s-3.459-7.726-7.726-7.726h-12.713v-10.732h14.34z"/><path d="m180.589 341.967c4.267 0 7.726-3.459 7.726-7.726s-3.459-7.726-7.726-7.726h-22.067c-4.267 0-7.726 3.459-7.726 7.726v52.37c0 4.267 3.459 7.726 7.726 7.726h22.067c4.267 0 7.726-3.459 7.726-7.726s-3.459-7.726-7.726-7.726h-14.341v-10.732h12.713c4.267 0 7.726-3.459 7.726-7.726s-3.459-7.726-7.726-7.726h-12.713v-10.732h14.341z"/><path d="m253.852 373.472c-3.27-2.742-8.143-2.314-10.885.955-.426.508-.884.981-1.363 1.407-2.452 2.184-5.603 3.291-9.365 3.291-10.311 0-18.7-8.389-18.7-18.7s8.389-18.7 18.7-18.7c3.748 0 7.362 1.103 10.45 3.189 3.537 2.39 8.339 1.459 10.728-2.076 2.389-3.536 1.459-8.339-2.077-10.728-5.652-3.818-12.257-5.837-19.101-5.837-18.832 0-34.153 15.321-34.153 34.152 0 18.832 15.321 34.153 34.153 34.153 7.558 0 14.35-2.491 19.641-7.203 1.037-.923 2.022-1.938 2.928-3.019 2.741-3.268 2.313-8.142-.956-10.884z"/><path d="m120.714 353.594c-6.298-2.323-12.176-4.849-14.179-5.723-.853-.763-.866-1.758-.785-2.32.104-.72.644-2.486 3.419-3.322 6.84-2.059 13.294 2.983 13.515 3.159 3.265 2.703 8.106 2.269 10.839-.982 2.745-3.266 2.323-8.14-.943-10.886-.518-.435-12.854-10.609-27.868-6.087-7.718 2.325-13.181 8.426-14.257 15.922-1.014 7.06 2.048 13.853 7.99 17.727.342.222.7.418 1.072.584.307.137 7.618 3.391 15.849 6.427 1.602.591 6.783 2.766 6.215 5.948-.437 2.446-3.669 5.087-8.13 5.087-4.942 0-9.687-1.98-12.693-5.296-2.865-3.161-7.752-3.402-10.913-.537-3.162 2.866-3.402 7.751-.537 10.913 5.974 6.592 14.774 10.373 24.143 10.373 11.681 0 21.498-7.495 23.342-17.823 1.395-7.817-2.096-18.006-16.079-23.164z"/><path d="m416.968 326.274h-29.189c-4.267 0-7.726 3.459-7.726 7.726s3.459 7.726 7.726 7.726h6.809v45.126c0 4.267 3.459 7.726 7.726 7.726s7.726-3.459 7.726-7.726v-45.126h6.927c4.267 0 7.726-3.459 7.726-7.726.001-4.267-3.458-7.726-7.725-7.726z"/><path d="m311.58 347.735c0-11.834-9.976-21.462-22.239-21.462h-14.045c-.003 0-.006 0-.009 0s-.006 0-.008 0c-4.267 0-7.726 3.459-7.726 7.726v52.853c0 4.267 3.459 7.726 7.726 7.726s7.726-3.459 7.726-7.726v-11.993l15.049 17.098c1.527 1.735 3.659 2.622 5.803 2.622 1.813 0 3.634-.634 5.102-1.927 3.203-2.819 3.515-7.701.695-10.904l-12.327-14.005c8.324-3.106 14.253-10.892 14.253-20.008zm-22.239-6.009c3.679 0 6.787 2.752 6.787 6.009 0 3.258-3.108 6.01-6.787 6.01-1.491 0-3.879.009-6.264.02-.011-2.306-.02-4.599-.02-6.029 0-1.226-.005-3.585-.012-6.009h6.296z"/><path d="m202.905 251.369c4.267 0 7.726-3.459 7.726-7.726s-3.459-7.726-7.726-7.726h-29.189c-4.267 0-7.726 3.459-7.726 7.726s3.459 7.726 7.726 7.726h6.809v45.126c0 4.267 3.459 7.726 7.726 7.726s7.726-3.459 7.726-7.726v-45.126z"/><path d="m346.01 258.558c0-12.484-10.288-22.641-22.934-22.641h-14.716c-4.151-.081-7.798 3.581-7.726 7.726v52.853c0 4.267 3.459 7.726 7.726 7.726s7.726-3.459 7.726-7.726v-15.272c2.634-.013 5.34-.024 6.99-.024 12.647 0 22.934-10.157 22.934-22.642zm-29.887 0c0-1.443-.007-4.332-.014-7.189h6.967c4.055 0 7.481 3.292 7.481 7.189s-3.426 7.189-7.481 7.189c-1.639 0-4.312.011-6.93.023-.011-2.722-.023-5.522-.023-7.212z"/><path d="m251.382 304.222c18.832 0 34.153-15.321 34.153-34.152 0-18.832-15.321-34.153-34.153-34.153-18.831 0-34.152 15.321-34.152 34.153 0 18.831 15.321 34.152 34.152 34.152zm0-52.853c10.311 0 18.7 8.389 18.7 18.7s-8.389 18.7-18.7 18.7-18.7-8.389-18.7-18.7 8.389-18.7 18.7-18.7z"/></g><g><path d="m179.857 95.131h-89.029c-4.267 0-7.726-3.459-7.726-7.726s3.459-7.726 7.726-7.726h89.029c4.267 0 7.726 3.459 7.726 7.726s-3.459 7.726-7.726 7.726z" fill="#a8d3d8"/></g><g><path d="m142.988 128.173h-52.16c-4.267 0-7.726-3.459-7.726-7.726s3.459-7.726 7.726-7.726h52.159c4.267 0 7.726 3.459 7.726 7.726s-3.458 7.726-7.725 7.726z" fill="#a8d3d8"/></g></g></svg>