<svg id="Capa_1" enable-background="new 0 0 512 512" viewBox="0 0 512 512" xmlns="http://www.w3.org/2000/svg"><g><path d="m512 332.233h-264.757v-236.941h233.851c17.069 0 30.905 13.837 30.905 30.905v206.036z" fill="#ffbe73"/><path d="m264.757 332.233h-264.757v-206.036c0-17.069 13.837-30.905 30.905-30.905h233.851v236.941z" fill="#ffb25a"/><g><path d="m111.775 329.658h329.658v-298.753c0-17.068-13.837-30.905-30.906-30.905h-267.847c-17.069 0-30.905 13.837-30.905 30.905z" fill="#fce3a0"/><g><g><path d="m400.225 98.588v193.901h-16.359c-159.85-33.84-235.909-143.005-188.616-251.282h147.594c9.025 26.486 28.825 45.122 57.381 57.381z" fill="#fff8e6"/><path d="m400.225 98.591-57.384-57.384v36.78c0 11.379 9.225 20.604 20.604 20.604z" fill="#ffbe73"/><path d="m383.866 292.489h-313.299v-220.376c0-17.069 13.837-30.905 30.905-30.905h93.777c.558 93.55 60.745 207.602 188.617 251.281z" fill="#ffeab7"/></g><g fill="#93bce8"><path d="m343.565 186.896h-80.354c-4.268 0-7.726-3.459-7.726-7.726s3.459-7.726 7.726-7.726h80.354c4.268 0 7.726 3.459 7.726 7.726.001 4.267-3.458 7.726-7.726 7.726z"/><path d="m343.565 145.689h-195.734c-4.268 0-7.726-3.459-7.726-7.726s3.459-7.726 7.726-7.726h195.734c4.268 0 7.726 3.459 7.726 7.726.001 4.267-3.458 7.726-7.726 7.726z"/><path d="m209.642 186.896h-61.811c-4.268 0-7.726-3.459-7.726-7.726s3.459-7.726 7.726-7.726h61.811c4.268 0 7.726 3.459 7.726 7.726s-3.459 7.726-7.726 7.726z"/><path d="m281.755 104.482h-133.924c-4.268 0-7.726-3.459-7.726-7.726s3.459-7.726 7.726-7.726h133.924c4.268 0 7.726 3.459 7.726 7.726s-3.459 7.726-7.726 7.726z"/></g></g></g><g><path d="m512 282.62v198.475c0 17.07-13.835 30.905-30.905 30.905h-4.131c-140.57-26.324-210.167-99.371-188.111-229.38z" fill="#fbf198"/><path d="m476.964 512h-446.059c-17.07 0-30.905-13.835-30.905-30.905v-247.244h214.072c10.333 0 19.985 5.161 25.724 13.763l17.204 25.827c3.822 5.738 10.261 9.179 17.153 9.179h14.701c5.902 118.862 69.649 196.301 188.11 229.38z" fill="#f8ea69"/></g><g><g><path d="m202.172 407.921c.007 13.843-14.08 25.072-31.463 25.081s-31.481-11.206-31.488-25.049 14.079-25.073 31.463-25.081c17.383-.01 31.481 11.206 31.488 25.049z" fill="#ffa1ac"/><path d="m309.828 407.867c.007 13.843 14.105 25.058 31.488 25.049s31.47-11.238 31.463-25.081c-.007-13.844-14.105-25.059-31.488-25.05s-31.47 11.238-31.463 25.082z" fill="#ffa1ac"/><path d="m286.848 396.547c-.01-19.068-13.824-20.852-30.864-20.844-17.04.009-30.852 1.807-30.843 20.875.01 19.067 13.831 34.518 30.871 34.509s30.845-15.473 30.836-34.54z" fill="#666667"/></g><g fill="#666667"><path d="m323.681 386.91c-.005 0-.009 0-.014 0-4.268-.008-7.72-3.474-7.712-7.741l.023-12.362c.008-4.262 3.466-7.712 7.726-7.712h.014c4.268.008 7.72 3.474 7.712 7.741l-.023 12.362c-.008 4.262-3.465 7.712-7.726 7.712z"/><path d="m208.739 385.778c-.005 0-.011 0-.016 0-4.268-.009-7.719-3.476-7.71-7.743.004-1.806-.696-3.506-1.97-4.785-1.275-1.28-2.971-1.986-4.776-1.99-.005 0-.01 0-.015 0-3.721 0-6.754 3.023-6.762 6.746-.01 4.261-3.467 7.709-7.726 7.709-.006 0-.011 0-.017 0-4.268-.01-7.719-3.477-7.709-7.744.028-12.231 9.989-22.164 22.212-22.164h.05c5.933.013 11.506 2.336 15.693 6.54 4.186 4.205 6.485 9.788 6.472 15.721-.008 4.262-3.466 7.71-7.726 7.71z"/></g></g></g><g/><g/><g/><g/><g/><g/><g/><g/><g/><g/><g/><g/><g/><g/><g/></svg>