<svg id="Layer_1" enable-background="new 0 0 511.527 511.527" height="512" viewBox="0 0 511.527 511.527" width="512" xmlns="http://www.w3.org/2000/svg"><path d="m364.329 317.079-90.973-34.902c-34.124-13.092-51.174-51.367-38.082-85.491l57.298-149.35c13.092-34.124 51.367-51.174 85.491-38.082l90.973 34.902c34.124 13.092 51.174 51.367 38.082 85.491l-57.298 149.35c-13.091 34.124-51.367 51.174-85.491 38.082z" fill="#f9ef90"/><path d="m469.447 113.396-138.001-52.944c-3.975-1.528-8.429.46-9.953 4.433-1.525 3.973.46 8.429 4.433 9.953l138.001 52.944c.908.349 1.841.514 2.758.514 3.098 0 6.019-1.882 7.195-4.947 1.526-3.972-.46-8.429-4.433-9.953z" fill="#f4d37f"/><path d="m451.786 159.429-138-52.944c-3.976-1.529-8.429.461-9.953 4.433-1.525 3.973.46 8.429 4.433 9.953l138 52.944c.908.349 1.841.514 2.758.514 3.098 0 6.019-1.882 7.195-4.947 1.525-3.973-.46-8.429-4.433-9.953z" fill="#f4d37f"/><path d="m322.946 347.279-109.956-.313c-36.549-.104-66.093-29.817-65.989-66.366l.501-175.887c.104-36.549 29.817-66.093 66.366-65.989l109.956.313c36.549.104 66.093 29.817 65.989 66.366l-.501 175.887c-.104 36.548-29.817 66.093-66.366 65.989z" fill="#fffdde"/><path d="m190.678 122.5 155.86.443h.022c4.246 0 7.693-3.435 7.705-7.683.012-4.256-3.428-7.715-7.683-7.727l-155.86-.443c-.008 0-.015 0-.022 0-4.246 0-7.693 3.435-7.705 7.683-.012 4.255 3.428 7.715 7.683 7.727z" fill="#fcf3b4"/><path d="m346.433 159.523-155.859-.443c-.008 0-.015 0-.022 0-4.246 0-7.693 3.435-7.705 7.683-.012 4.256 3.428 7.715 7.683 7.727l155.859.443h.022c4.246 0 7.693-3.435 7.705-7.683.012-4.255-3.428-7.715-7.683-7.727z" fill="#fcf3b4"/><path d="m462.498 216.151h-299.266c-2.836 0-5.136-2.299-5.136-5.136 0-38.831-31.479-70.31-70.31-70.31h-40.789c-25.956 0-46.997 21.041-46.997 46.997v277.011c0 23.083 18.886 41.968 41.968 41.968h420.53c23.083 0 41.968-18.886 41.968-41.968v-206.594c0-23.082-18.886-41.968-41.968-41.968z" fill="#fef2d3"/><path d="m410.581 454.015h-190.294c-17.669 0-31.992-14.323-31.992-31.992v-34.813c0-17.669 14.323-31.992 31.992-31.992h190.295c17.669 0 31.992 14.323 31.992 31.992v34.813c-.001 17.668-14.324 31.992-31.993 31.992z" fill="#f6d4ac"/><g fill="#343941"><path d="m223.071 275.762c-4.143 0-7.5 3.357-7.5 7.5v14.594c0 4.143 3.357 7.5 7.5 7.5s7.5-3.357 7.5-7.5v-14.594c0-4.143-3.357-7.5-7.5-7.5z"/><path d="m407.796 275.762c-4.143 0-7.5 3.357-7.5 7.5v14.594c0 4.143 3.357 7.5 7.5 7.5s7.5-3.357 7.5-7.5v-14.594c0-4.143-3.357-7.5-7.5-7.5z"/><path d="m337.671 291.59c-15.466 10.175-29.172 10.181-44.438.021-3.448-2.295-8.104-1.36-10.399 2.089-2.295 3.448-1.359 8.104 2.089 10.399 10.214 6.797 20.309 10.194 30.434 10.194 10.111 0 20.252-3.392 30.56-10.173 3.461-2.276 4.42-6.928 2.144-10.388-2.281-3.461-6.932-4.421-10.39-2.142z"/></g><path d="m388.385 396.911h-145.902c-4.256 0-7.705 3.449-7.705 7.705s3.449 7.705 7.705 7.705h145.902c4.256 0 7.705-3.449 7.705-7.705s-3.449-7.705-7.705-7.705z" fill="#c18c68"/><path d="m92.118 196.209c2.303-18.183 5.178-36.301 8.237-54.362-4.081-.737-8.276-1.143-12.569-1.143h-40.789c-25.956.001-46.997 21.042-46.997 46.998v277.012c0 23.082 18.886 41.968 41.968 41.968h155.146c-31.505-22.386-79.446-62.639-100.36-167.36-9.407-47.106-10.672-95.458-4.636-143.113z" fill="#fee2c1"/></svg>